<?xml version="1.0" encoding="iso-8859-1"?>
<svg xmlns="http://www.w3.org/2000/svg" xmlns:xlink="http://www.w3.org/1999/xlink" 
 version="1.0" width="28" height="28" viewBox="0 0 256.000000 256.000000" preserveAspectRatio="xMidYMid meet">
                                                <g transform="translate(0.000000,256.000000) scale(0.100000,-0.100000)" fill="#000000" stroke="none">
                                                    <path d="M1203 2546 c-23 -8 -57 -23 -77 -35 -34 -21 -126 -116 -126 -130 0 -4 -26 -7 -57 -6 -86 0 -125 -11 -191 -55 -91 -61 -141 -144 -157 -261 l-6 -46 -54 -6 c-113 -12 -211 -78 -266 -179 l-34 -63 -3 -434 -3 -433 61 -327 c33 -179 68 -346 77 -371 22 -60 102 -142 166 -171 l52 -24 575 0 575 0 55 26 c31 14 73 41 95 60 59 52 629 817 651 875 13 34 19 74 19 134 0 110 -33 186 -111 260 -74 70 -129 93 -234 98 -80 4 -109 -1 -182 -33 -16 -6 -17 18 -20 347 -3 338 -4 355 -25 400 -54 118 -177 199 -305 203 -67 3 -68 3 -100 46 -85 112 -245 165 -375 125z m167 -188 c25 -13 55 -38 67 -57 l23 -34 0 -493 0 -494 25 0 25 0 0 398 c1 355 3 400 18 429 57 108 200 113 276 10 21 -28 21 -38 24 -614 l2 -585 120 158 c129 172 167 204 242 204 81 0 158 -60 179 -141 10 -38 10 -54 -2 -90 -10 -28 -116 -178 -300 -424 -158 -209 -295 -388 -307 -398 -50 -45 -71 -46 -606 -47 -488 0 -511 1 -551 20 -22 11 -48 32 -57 48 -10 17 -43 168 -78 351 l-60 322 0 387 c0 382 0 388 22 432 45 89 156 114 234 55 59 -45 64 -68 64 -305 l0 -210 25 0 25 0 0 396 c0 442 0 443 69 490 71 48 169 27 225 -49 20 -28 21 -41 24 -433 3 -393 3 -404 22 -404 20 0 20 10 20 473 0 279 4 486 10 507 17 62 88 116 155 119 12 1 41 -9 65 -21z" />
                                                </g>
                                            </svg>