<?xml version="1.0" encoding="utf-8"?>
<svg version="1.0" xmlns="http://www.w3.org/2000/svg" xmlns:xlink="http://www.w3.org/1999/xlink" viewBox="0 0 405.000000 405.000000" preserveAspectRatio="xMidYMid meet">
    <g transform="translate(0.000000,405.000000) scale(0.100000,-0.100000)" fill="#000000" stroke="none">
        <path d="M29 4031 l-24 -19 -3 -1971 -2 -1971 2025 0 2025 0 0 1140 0 1140 -23 14 c-12 8 -200 59 -417 114 -430 108 -505 134 -650 230 -100 65 -239 200 -300 291 -23 35 -159 276 -301 535 -142 259 -267 481 -278 494 l-19 22 -1005 0 c-974 0 -1005 -1 -1028 -19z m2085 -658 c132 -241 263 -475 293 -521 62 -96 208 -251 302 -322 176 -129 293 -175 734 -286 l347 -87 0 -188 0 -189 -1755 0 -1755 0 0 1015 0 1015 798 0 797 0 239 -437z m-1512 -2269 l3 -356 24 -19 c21 -17 41 -19 201 -19 160 0 180 2 201 19 l24 19 3 356 3 356 69 0 69 0 3 -356 3 -356 24 -19 c21 -17 41 -19 201 -19 160 0 180 2 201 19 l24 19 3 356 3 356 69 0 69 0 3 -356 3 -356 24 -19 c21 -17 41 -19 201 -19 160 0 180 2 201 19 l24 19 3 356 3 356 69 0 69 0 3 -356 3 -356 24 -19 c21 -17 41 -19 201 -19 160 0 180 2 201 19 l24 19 3 356 3 356 69 0 69 0 3 -356 3 -356 24 -19 c21 -17 41 -19 201 -19 160 0 180 2 201 19 l24 19 3 356 3 356 164 0 165 0 0 -515 0 -515 -1755 0 -1755 0 0 515 0 515 160 0 159 0 3 -356z m298 56 l0 -300 -70 0 -70 0 0 300 0 300 70 0 70 0 0 -300z m600 0 l0 -300 -70 0 -70 0 0 300 0 300 70 0 70 0 0 -300z m600 0 l0 -300 -70 0 -70 0 0 300 0 300 70 0 70 0 0 -300z m600 0 l0 -300 -70 0 -70 0 0 300 0 300 70 0 70 0 0 -300z m600 0 l0 -300 -70 0 -70 0 0 300 0 300 70 0 70 0 0 -300z" />
    </g>
</svg>