<?xml version="1.0" encoding="iso-8859-1"?>
<svg version="1.1" xmlns="http://www.w3.org/2000/svg" xmlns:xlink="http://www.w3.org/1999/xlink" 
viewBox="0 0 256 256" x="0px" y="0px" enable-background="new 0 0 256 256" xml:space="preserve">
                        <g><g><path fill="#000000" d="M234.2,116.2H21.8c-7.1,0-11.8,4.7-11.8,11.8s4.7,11.8,11.8,11.8h212.4c7.1,0,11.8-4.7,11.8-11.8S241.3,116.2,234.2,116.2L234.2,116.2z M234.2,210.6H21.8c-7.1,0-11.8,4.7-11.8,11.8s4.7,11.8,11.8,11.8h212.4c7.1,0,11.8-4.7,11.8-11.8S241.3,210.6,234.2,210.6L234.2,210.6z M21.8,45.4h212.4c7.1,0,11.8-4.7,11.8-11.8c0-7.1-4.7-11.8-11.8-11.8H21.8c-7.1,0-11.8,4.7-11.8,11.8C10,40.7,14.7,45.4,21.8,45.4L21.8,45.4z" /></g></g>
                    </svg>