<svg xmlns="http://www.w3.org/2000/svg" version="1.0" viewBox="0 0 32 32">
	<g>
		<path d="M3,20.8V25c0,3.3,6.5,5,13,5s13-1.7,13-5v-4.2c-2.8,2.3-8.2,3.2-13,3.2S5.8,23.1,3,20.8z" />
		<path d="M29.8,2.3c-0.4-0.4-1-0.5-1.4-0.1l-16,14c-0.4,0.4-0.5,1-0.1,1.4c0.2,0.2,0.5,0.3,0.8,0.3c0.2,0,0.5-0.1,0.7-0.2l16-14 C30.1,3.4,30.1,2.8,29.8,2.3z" />
		<path d="M22.5,12.6L15,19.3c-0.5,0.5-1.2,0.7-2,0.7c-0.9,0-1.7-0.4-2.3-1c-1.1-1.3-1-3.1,0.3-4.2l3.1-2.7C8.3,12.4,3,14,3,17 c0,3.3,6.5,5,13,5s13-1.7,13-5C29,14.9,26.2,13.4,22.5,12.6z" />
	</g>
</svg>