<svg xmlns="http://www.w3.org/2000/svg" version="1.0" viewBox="0 0 584.000000 610.000000" preserveAspectRatio="xMidYMid meet">

<g transform="translate(0.000000,610.000000) scale(0.100000,-0.100000)" fill="#000000" stroke="none">
<path d="M2650 5974 c-380 -45 -682 -134 -992 -290 -273 -139 -476 -292 -723 -545 -422 -433 -676 -940 -777 -1551 -19 -115 -22 -171 -22 -413 0 -316 14 -429 80 -689 123 -478 393 -948 743 -1291 l71 -69 -283 -286 c-309 -310 -326 -333 -334 -443 -4 -48 0 -75 17 -121 29 -77 74 -125 157 -167 62 -32 74 -34 162 -34 74 0 105 4 136 19 25 12 161 139 360 335 l320 317 131 -66 c301 -150 676 -257 1019 -291 150 -15 481 -6 625 16 329 51 642 157 893 301 l79 46 322 -320 c295 -293 326 -321 379 -341 36 -13 81 -21 120 -21 170 0 317 158 304 327 -8 110 -25 133 -336 446 l-286 288 42 35 c41 34 221 232 295 324 130 164 311 492 391 710 126 341 186 707 174 1054 -3 89 -8 177 -11 196 -2 19 -7 58 -10 85 -3 28 -9 66 -12 85 -3 19 -7 46 -9 60 -5 34 -12 70 -20 100 -4 14 -8 34 -10 45 -6 30 -13 59 -16 65 -1 3 -3 10 -4 15 -1 6 -5 17 -8 25 -4 8 -9 26 -11 40 -3 14 -5 26 -7 28 -1 1 -2 5 -3 10 -1 4 -4 12 -7 17 -6 10 -39 106 -43 128 -3 13 -17 46 -78 182 -134 300 -319 565 -573 821 -177 179 -300 280 -472 390 -200 128 -471 254 -672 314 -40 12 -80 24 -89 28 -11 4 -13 2 -7 -8 6 -9 4 -12 -7 -8 -70 27 -203 63 -298 80 -95 17 -163 21 -390 23 -151 2 -291 1 -310 -1z m1170 -2514 c322 -91 558 -328 652 -656 19 -68 23 -102 23 -249 0 -147 -4 -181 -23 -249 -78 -272 -244 -474 -487 -591 -153 -75 -223 -90 -420 -90 -197 0 -267 15 -420 90 -243 117 -409 319 -487 591 -19 68 -23 102 -23 249 0 147 4 181 23 249 90 313 304 540 605 641 112 37 173 44 337 40 108 -3 164 -9 220 -25z"/>
</g>
</svg>