<svg xmlns="http://www.w3.org/2000/svg" version="1.0" viewBox="0 0 512 512">
	<g>
		<g>
			<path d="M442.514,210.831c-7.106-1.448-14.575-2.801-22.32-4.061c-46.076,9.44-102.01,16.097-160.96,19.039
								c-21.975,1.098-43.591,1.641-64.477,1.641c-47.447,0-91.162-2.799-126.956-8.254c-6.989-1.064-13.547-2.212-19.702-3.438
								C8.783,226.036,0,236.16,0,238.647c0,2.885,11.713,16.058,69.381,27.816c43.181,8.803,98.697,14.168,158.898,15.425v21.747
								v120.508c0,9.207,7.649,16.67,16.856,16.67c9.207,0,16.856-7.463,16.856-16.67V303.904v-21.742h0
								c68.63-0.297,132.263-5.846,180.606-15.699C500.268,254.705,512,241.532,512,238.647C512,235.762,500.184,222.589,442.514,210.831
								z" />
		</g>
	</g>
	<g>
		<g>
			<path d="M440.871,123.538c-34.736-5.293-77.172-8.009-123.466-8.009c-20.314,0-40.964,0.526-62.636,1.583V95.344V82.059
								c0-6.005-4.832-10.871-10.836-10.871s-10.836,4.867-10.836,10.871v14.516v21.789c-62.61,4.119-120.418,12.439-164.636,23.777
								c-57.011,14.618-68.206,28.365-68.063,31.245c0.144,2.88,12.536,15.45,70.719,24.318c50.153,7.642,116.573,9.913,187.047,6.392
								c70.48-3.521,136.348-12.397,185.49-24.997c57.006-14.617,68.12-28.362,67.978-31.243
								C511.487,144.976,499.053,132.406,440.871,123.538z" />
		</g>
	</g>
</svg>