<svg xmlns="http://www.w3.org/2000/svg" version="1.0" viewBox="0 0 1024 1024">
    <path d="M502.857143 73.142857q-26.285714 0-45.142857 18.857143t-18.857143 45.142857l0 374.857143-18.285714 0 0-301.714286q0-26.285714-18.857143-45.142857t-45.142857-18.857143-45.142857 18.857143-18.857143 45.142857l0 448-88-117.142857q-21.714286-29.142857-58.285714-29.142857-30.285714 0-51.714286 21.428571t-21.428571 51.714286q0 24.571429 14.857143 44l219.428571 292.571429q21.714286 29.142857 58.285714 29.142857l393.142857 0q19.428571 0 34.857143-12.571429t19.428571-32l43.428571-231.428571q2.857143-18.285714 2.857143-33.714286l0-284.571429q0-26.285714-18.857143-45.142857t-45.142857-18.857143-45.142857 18.857143-18.857143 45.142857l0 155.428571-18.285714 0 0-301.714286q0-26.285714-18.857143-45.142857t-45.142857-18.857143-45.142857 18.857143-18.857143 45.142857l0 301.714286-18.285714 0 0-374.857143q0-26.285714-18.857143-45.142857t-45.142857-18.857143zm0-73.142857q38.857143 0 71.714286 20.285714t50.571429 55.142857q10.857143-2.285714 24-2.285714 56.571429 0 96.857143 40.285714t40.285714 96.857143l0 9.714286q60-3.428571 103.142857 36.571429t43.142857 100l0 284.571429q0 22.857143-4.571429 47.428571l-43.428571 230.857143q-8 45.142857-43.714286 74.857143t-82 29.714286l-393.142857 0q-34.285714 0-65.428571-15.714286t-51.714286-42.571429l-219.428571-292.571429q-29.142857-38.857143-29.142857-88 0-60.571429 42.857143-103.428571t103.428571-42.857143q44.571429 0 73.142857 19.428571l0-248q0-56.571429 40.285714-96.857143t96.857143-40.285714q13.142857 0 24 2.285714 17.714286-34.857143 50.571429-55.142857t71.714286-20.285714z" />
</svg>