<svg xmlns="http://www.w3.org/2000/svg" version="1.0" viewBox="0 0 200.000000 200.000000" preserveAspectRatio="xMidYMid meet" id="prepararBateriaBotao">
    <g transform="translate(0.000000,200.000000) scale(0.100000,-0.100000)" fill="#fff" stroke="none">
        <path d="M436 1631 c-16 -11 -38 -34 -50 -53 -21 -32 -21 -41 -21 -578 0 -606 -3 -582 67 -632 30 -21 44 -23 145 -23 121 0 142 7 187 69 21 27 21 40 24 574 3 611 5 592 -67 639 -30 21 -46 23 -145 23 -92 0 -116 -3 -140 -19z m232 -625 c1 -375 -1 -523 -9 -532 -15 -18 -150 -19 -167 -2 -9 9 -12 140 -12 528 0 284 3 520 7 524 4 4 46 5 93 4 l85 -3 3 -519z" />
        <path d="M919 1627 c-71 -47 -69 -30 -69 -630 0 -594 -1 -584 62 -629 35 -24 102 -34 140 -19 14 5 175 133 356 284 342 285 352 296 352 370 0 60 -38 99 -355 361 -173 143 -324 265 -337 272 -38 22 -110 17 -149 -9z m406 -353 c171 -141 311 -264 313 -273 2 -12 -92 -96 -314 -281 -255 -211 -320 -261 -333 -253 -14 9 -16 67 -19 524 -1 283 0 520 3 527 2 6 13 12 22 12 10 0 158 -115 328 -256z" />
    </g>
</svg>