<svg xmlns="http://www.w3.org/2000/svg" version="1.1" viewBox="0 0 32 32" xml:space="preserve" fill="none" stroke="currentColor" stroke-width="2">
    <polygon points="8.1,25.4 6.6,23.9 8.9,20.1 11.9,23.1"></polygon>
    <polygon points="24.5,6 26,7.5 17.1,17.9 14.1,14.9"></polygon>
    <polygon points="26,7.5 24.5,6 26,3 29,6"></polygon>
    <line x1="23.1" y1="4.5" x2="24.5" y2="6"></line>
    <line x1="26" y1="7.5" x2="27.5" y2="8.9"></line>
    <line x1="20.1" y1="6" x2="21.6" y2="7.5"></line>
    <line x1="24.5" y1="10.4" x2="26" y2="11.9"></line>
    <path d="M18.8,10.9c-2.4-1.4-5.6-1.1-7.6,1L11,12.1c0.6,1.2,0.4,2.6-0.6,3.6c-1.2,1.2-3.2,1.2-4.4,0.1 c-0.3,0.2-0.6,0.4-0.8,0.7c-2.9,2.9-2.9,7.6,0,10.4c2.9,2.9,7.6,2.9,10.4,0c0.3-0.3,0.5-0.5,0.7-0.8c-1.2-1.2-1.2-3.2,0.1-4.4 c1-1,2.4-1.2,3.6-0.6l0.1-0.1c2.1-2.1,2.4-5.2,1-7.6"></path>
</svg>