<svg xmlns="http://www.w3.org/2000/svg" version="1.1" viewBox="0 0 32 32" xml:space="preserve" fill="none" stroke="currentColor" stroke-width="2">
    <path d="M20.4,24.8l1.5-3.9c0.4-1.1,1.3-2.1,2.4-2.7l0,0c3.2-1.7,3.7-6.1,1-8.8l-2.3-2.3c-2.7-2.7-7.1-2.2-8.8,1l0,0 c-0.6,1.1-1.5,1.9-2.7,2.4l-3.9,1.5c-4.6,1.8-5.6,7.8-2,11.4L9,26.8C12.7,30.4,18.6,29.4,20.4,24.8z" />
    <circle cx="18.2" cy="14.3" r="2.9" />
    <line x1="9.7" y1="19.1" x2="13.4" y2="22.8" />
    <polyline points="26.3,3.5 22.9,6.9 25.6,9.6 29,6.2 " />
</svg>